<?xml version="1.0" encoding="UTF-8"?>
<svg width="1200" height="630" viewBox="0 0 1200 630" xmlns="http://www.w3.org/2000/svg">
  <!-- Background gradient -->
  <defs>
    <linearGradient id="bgGradient" x1="0%" y1="0%" x2="100%" y2="100%">
      <stop offset="0%" stop-color="#f97316" />
      <stop offset="100%" stop-color="#ea580c" />
    </linearGradient>
  </defs>
  
  <!-- Background -->
  <rect width="1200" height="630" fill="url(#bgGradient)" />
  
  <!-- Decorative elements -->
  <circle cx="200" cy="150" r="300" fill="#ffffff" fill-opacity="0.05" />
  <circle cx="1000" cy="500" r="250" fill="#ffffff" fill-opacity="0.05" />
  
  <!-- Map pins pattern -->
  <g opacity="0.1">
    <path d="M100,200 C100,178 118,160 140,160 C162,160 180,178 180,200 C180,220 140,260 140,260 C140,260 100,220 100,200 Z" fill="#ffffff" />
    <path d="M300,400 C300,378 318,360 340,360 C362,360 380,378 380,400 C380,420 340,460 340,460 C340,460 300,420 300,400 Z" fill="#ffffff" />
    <path d="M900,200 C900,178 918,160 940,160 C962,160 980,178 980,200 C980,220 940,260 940,260 C940,260 900,220 900,200 Z" fill="#ffffff" />
    <path d="M700,500 C700,478 718,460 740,460 C762,460 780,478 780,500 C780,520 740,560 740,560 C740,560 700,520 700,500 Z" fill="#ffffff" />
  </g>
  
  <!-- Logo -->
  <g transform="translate(350, 170) scale(1.6)">
    <!-- Location Pin shape -->
    <path d="M150,20 C203,20 245,62 245,115 C245,150 150,210 150,210 C150,210 55,150 55,115 C55,62 97,20 150,20 Z" fill="#ffffff" />
    
    <!-- Wrench inside -->
    <path d="M180,60 C175,65 165,75 160,80 C160,80 170,95 165,100 C160,105 145,95 145,95 C140,100 125,115 120,120 C125,125 125,135 120,140 C115,145 105,145 100,140 C95,135 95,125 100,120 C105,115 115,115 120,110 C135,95 145,85 145,85 C145,85 135,70 140,65 C145,60 160,70 160,70 C165,65 175,55 180,50 C185,45 195,45 200,50 C205,55 205,65 200,70 C195,75 185,75 180,70 C175,65 175,65 175,65 C175,65 175,65 180,60 Z" fill="#f97316" />
  </g>
  
  <!-- Text -->
  <text x="600" y="400" text-anchor="middle" font-family="Inter, sans-serif" font-size="65" font-weight="bold" fill="#ffffff">Municipality</text>
  <text x="600" y="470" text-anchor="middle" font-family="Inter, sans-serif" font-size="30" font-weight="normal" fill="#ffffff">Report Infrastructure Issues in South Africa</text>
</svg>