<?xml version="1.0" encoding="UTF-8"?>
<svg width="1024" height="500" viewBox="0 0 1024 500" fill="none" xmlns="http://www.w3.org/2000/svg">
  <!-- Background gradient -->
  <defs>
    <linearGradient id="bg-gradient" x1="0%" y1="0%" x2="100%" y2="100%">
      <stop offset="0%" stop-color="#FF8C00" />
      <stop offset="100%" stop-color="#FFA500" />
    </linearGradient>
  </defs>
  
  <!-- Background -->
  <rect width="1024" height="500" fill="url(#bg-gradient)"/>
  
  <!-- Graphics Elements -->
  <g transform="translate(110, 100)">
    <!-- City outline silhouette -->
    <path d="M0,300 L30,300 L30,240 L60,240 L60,270 L90,270 L90,200 L120,200 L120,300 
             L150,300 L150,220 L180,220 L180,250 L210,250 L210,300 L240,300 L240,170 
             L270,170 L270,300 L300,300 L300,220 L330,220 L330,180 L360,180 L360,300 
             L390,300 L390,220 L420,220 L420,300" 
          fill="#00000022" stroke="#FFFFFF22" stroke-width="3"/>
    
    <!-- Map pin icon -->
    <g transform="translate(340, 120) scale(2)">
      <path d="M25,0 C11.2,0 0,11.2 0,25 C0,38.8 25,70 25,70 C25,70 50,38.8 50,25 C50,11.2 38.8,0 25,0 Z M25,33.8 C20.1,33.8 16.2,29.9 16.2,25 C16.2,20.1 20.1,16.2 25,16.2 C29.9,16.2 33.8,20.1 33.8,25 C33.8,29.9 29.9,33.8 25,33.8 Z" 
            fill="#FFFFFF" opacity="0.9"/>
      <circle cx="25" cy="25" r="10" fill="#FF8C00"/>
    </g>
  </g>
  
  <!-- Lokisa Logo -->
  <g transform="translate(640, 150) scale(1.5)">
    <circle cx="75" cy="75" r="70" fill="white"/>
    <g transform="translate(15, 15) scale(0.8)">
      <path d="M75 0C33.75 0 0 33.75 0 75C0 116.25 33.75 150 75 150C116.25 150 150 116.25 150 75C150 33.75 116.25 0 75 0ZM75 130C49.3 130 28 108.7 28 83C28 57.3 49.3 36 75 36C100.7 36 122 57.3 122 83C122 108.7 100.7 130 75 130Z" fill="#FF8C00"/>
      <path d="M95 65L75 55V75L95 65Z" fill="#FF8C00"/>
      <path d="M55 65L75 55V75L55 65Z" fill="#FF8C00"/>
      <rect x="55" y="85" width="40" height="10" rx="5" fill="#FF8C00"/>
      <rect x="55" y="105" width="40" height="10" rx="5" fill="#FF8C00"/>
    </g>
  </g>
  
  <!-- Text Elements -->
  <text x="130" y="100" font-family="Inter, sans-serif" font-weight="800" font-size="64" fill="white">LOKISA</text>
  
  <text x="130" y="170" font-family="Inter, sans-serif" font-weight="500" font-size="28" fill="white" opacity="0.9">Community-powered infrastructure reporting</text>
  
  <text x="130" y="420" font-family="Inter, sans-serif" font-weight="600" font-size="24" fill="white">Report. Track. Improve.</text>
</svg>