<?xml version="1.0" encoding="UTF-8"?>
<svg width="2732" height="2732" viewBox="0 0 2732 2732" fill="none" xmlns="http://www.w3.org/2000/svg">
  <!-- Background -->
  <rect width="2732" height="2732" fill="#FF8C00"/>
  
  <!-- Logo Elements - Center aligned -->
  <g transform="translate(966, 966) scale(3.7)">
    <!-- Logo Circle -->
    <circle cx="108" cy="108" r="100" fill="white"/>
    
    <!-- Main Lokisa Logo Icon -->
    <g transform="translate(28, 28) scale(0.75)">
      <path d="M108 25C62.25 25 25 62.25 25 108C25 153.75 62.25 191 108 191C153.75 191 191 153.75 191 108C191 62.25 153.75 25 108 25ZM108 175C71.05 175 41 144.95 41 108C41 71.05 71.05 41 108 41C144.95 41 175 71.05 175 108C175 144.95 144.95 175 108 175Z" fill="#FF8C00"/>
      <path d="M140 95L115 80V110L140 95Z" fill="#FF8C00"/>
      <path d="M85 95L110 80V110L85 95Z" fill="#FF8C00"/>
      <rect x="85" y="118" width="55" height="15" rx="5" fill="#FF8C00"/>
      <rect x="85" y="140" width="55" height="15" rx="5" fill="#FF8C00"/>
    </g>
  </g>
  
  <!-- App Name -->
  <text x="1366" y="1800" font-family="Inter, sans-serif" font-weight="700" font-size="180" text-anchor="middle" fill="white">LOKISA</text>
  
  <!-- Tagline -->
  <text x="1366" y="1900" font-family="Inter, sans-serif" font-weight="400" font-size="60" text-anchor="middle" fill="white" opacity="0.9">Report and track infrastructure issues</text>
</svg>