<?xml version="1.0" encoding="UTF-8"?>
<svg width="432" height="432" viewBox="0 0 432 432" fill="none" xmlns="http://www.w3.org/2000/svg">
  <g transform="translate(108, 108) scale(0.5)">
    <circle cx="216" cy="216" r="200" fill="white"/>
    <path d="M216 50C124.5 50 50 124.5 50 216C50 307.5 124.5 382 216 382C307.5 382 382 307.5 382 216C382 124.5 307.5 50 216 50ZM216 350C142.1 350 82 289.9 82 216C82 142.1 142.1 82 216 82C289.9 82 350 142.1 350 216C350 289.9 289.9 350 216 350Z" fill="#FF8C00"/>
    <path d="M280 190L230 160V220L280 190Z" fill="#FF8C00"/>
    <path d="M170 190L220 160V220L170 190Z" fill="#FF8C00"/>
    <rect x="170" y="235" width="110" height="30" rx="10" fill="#FF8C00"/>
    <rect x="170" y="280" width="110" height="30" rx="10" fill="#FF8C00"/>
  </g>
</svg>